<svg xmlns="http://www.w3.org/2000/svg" version="1.0" preserveAspectRatio="xMidYMid meet" viewBox="140.13 694.33 1768.05 604.36">

<g transform="translate(0.000000,2048.000000) scale(0.100000,-0.100000)" fill="#000000" stroke="none">
<path d="M12205 13526 c-132 -21 -195 -40 -345 -108 -115 -52 -162 -77 -289 -153 -105 -64 -245 -207 -338 -345 l-66 -100 -611 -1 c-336 -1 -650 -3 -699 -4 -48 -2 -759 -6 -1580 -9 -820 -4 -1712 -9 -1982 -11 -269 -2 -1232 -7 -2140 -10 -2075 -7 -2637 -12 -2668 -24 -34 -13 -77 -72 -84 -115 -3 -19 -2 -56 2 -82 l7 -46 4801 7 c2641 3 4811 9 4822 12 11 3 45 23 75 45 30 21 116 82 190 135 74 53 164 115 200 136 68 42 290 223 290 237 0 12 135 118 199 157 68 41 179 77 290 94 221 34 543 -70 788 -254 147 -112 238 -224 352 -436 33 -63 63 -116 65 -118 2 -2 1228 -4 2725 -3 2198 0 2720 -2 2711 -12 -12 -15 -170 -335 -170 -345 0 -8 -79 -176 -212 -451 -48 -101 -88 -185 -88 -188 0 -2 -34 -74 -75 -160 -41 -86 -75 -158 -75 -160 0 -2 -34 -74 -75 -159 -41 -86 -75 -159 -75 -163 0 -4 -35 -81 -79 -172 -43 -91 -116 -244 -162 -340 l-84 -175 -3 -828 -2 -828 -2033 1 c-1117 1 -2067 1 -2109 0 -52 0 -78 -4 -78 -11 0 -7 -24 -62 -54 -123 -88 -182 -258 -389 -397 -483 -128 -88 -305 -159 -493 -197 -81 -17 -284 -21 -351 -7 -214 45 -368 129 -578 313 -130 115 -352 280 -652 486 l-90 61 -585 5 c-322 3 -1134 8 -1805 11 -671 3 -1598 7 -2060 10 -847 5 -3327 17 -4137 19 l-438 2 0 -182 c0 -196 1 -199 60 -236 29 -19 553 -24 3095 -33 820 -3 1654 -7 1855 -10 201 -2 1222 -7 2270 -11 1283 -4 1911 -10 1925 -17 11 -5 98 -87 195 -181 185 -182 242 -229 355 -294 211 -121 540 -195 790 -176 220 16 431 67 590 144 105 51 240 130 255 149 3 4 46 41 95 83 50 42 113 103 140 136 28 33 64 69 82 82 l32 22 583 -6 c1202 -11 3952 -11 3973 1 11 6 29 21 40 33 20 22 20 35 16 819 -2 574 0 818 9 876 12 82 53 182 215 520 35 72 74 157 88 190 14 33 50 112 80 175 243 509 338 731 350 811 20 130 26 312 28 830 2 372 1 398 -17 434 -11 22 -34 47 -54 57 -34 19 -89 19 -2535 12 -1375 -4 -2556 -8 -2625 -9 -69 -2 -137 0 -153 2 -18 4 -61 40 -125 105 -253 261 -463 404 -722 491 -214 73 -461 101 -645 73z"/>
<path d="M12262 13175 c-56 -12 -180 -72 -253 -122 -14 -10 -59 -48 -100 -84 -144 -129 -241 -204 -444 -343 -77 -52 -144 -99 -150 -104 -5 -4 -56 -40 -112 -80 -232 -164 -372 -291 -507 -458 -356 -445 -551 -1122 -482 -1674 36 -283 110 -543 220 -767 116 -237 183 -343 336 -533 141 -175 334 -332 655 -535 134 -85 178 -119 471 -363 221 -183 355 -242 551 -242 143 0 326 34 400 74 16 8 50 24 76 36 65 30 200 128 265 192 30 29 78 89 107 133 54 80 121 212 113 220 -4 4 -138 -11 -586 -65 -134 -17 -268 -30 -298 -30 -108 0 -155 44 -244 233 -63 132 -101 245 -94 282 3 16 18 59 34 95 15 36 34 85 40 110 25 95 55 134 163 207 55 37 108 74 119 82 10 8 21 12 23 9 2 -2 7 -145 11 -317 6 -249 10 -316 21 -327 12 -11 67 -14 299 -14 l284 0 11 28 c8 19 9 225 5 708 -5 571 -4 683 7 693 15 12 629 12 648 0 6 -3 11 -279 14 -709 2 -386 7 -706 12 -710 4 -5 139 -11 299 -14 264 -6 292 -5 305 10 11 14 13 117 11 608 -5 1497 -14 2872 -17 2884 -7 19 -564 17 -591 -2 -18 -14 -19 -33 -19 -693 l0 -678 -332 -3 c-268 -2 -333 0 -333 10 4 210 -14 1356 -21 1363 -15 15 -567 19 -585 4 -11 -9 -14 -62 -14 -300 0 -159 -4 -289 -9 -289 -5 0 -14 7 -21 15 -7 8 -49 39 -94 69 -45 30 -114 88 -152 128 -86 90 -101 136 -91 277 13 181 127 398 241 458 38 20 82 14 216 -30 58 -19 150 -47 205 -62 55 -15 174 -50 264 -76 90 -27 172 -49 182 -49 18 0 18 2 -2 53 -34 87 -109 229 -149 282 -132 177 -386 340 -626 401 -108 27 -187 29 -282 9z m-430 -1416 c34 -11 103 -45 155 -75 167 -99 409 -200 519 -219 22 -4 47 -9 56 -12 17 -4 18 -49 18 -721 0 -394 -3 -781 -6 -858 l-7 -142 -38 -6 c-22 -3 -111 -28 -199 -55 -175 -53 -282 -109 -415 -216 -115 -93 -133 -100 -255 -99 -70 0 -125 6 -165 18 -290 86 -504 305 -644 659 -55 139 -96 348 -100 510 -4 161 41 415 99 565 49 128 169 312 277 424 58 62 185 151 266 188 134 61 325 78 439 39z"/>
<path d="M11590 11571 c-23 -6 -26 -14 -37 -90 -6 -46 -13 -84 -15 -85 -41 -24 -109 -56 -121 -56 -22 0 -117 79 -117 98 -1 15 -2 15 -11 0 -5 -10 -37 -36 -69 -58 l-60 -41 16 -37 c33 -76 37 -89 31 -113 -9 -34 -92 -119 -117 -119 -11 0 -37 7 -57 15 -33 14 -38 14 -56 -2 -18 -17 -67 -104 -67 -120 0 -4 20 -28 43 -53 66 -68 67 -72 45 -159 l-19 -77 -61 -24 c-82 -33 -88 -40 -88 -115 l0 -63 69 -21 c39 -12 73 -26 76 -32 4 -5 15 -44 25 -87 21 -88 18 -98 -43 -142 l-43 -31 21 -64 c27 -85 43 -100 86 -87 88 26 97 25 150 -25 44 -41 49 -50 49 -90 0 -24 -9 -62 -20 -84 l-19 -41 47 -44 c67 -63 85 -65 135 -16 50 47 84 55 145 35 49 -17 63 -40 83 -134 12 -56 13 -57 85 -63 91 -7 101 -2 107 61 7 71 26 99 74 108 21 4 43 11 50 17 24 19 80 -10 118 -63 20 -27 41 -49 47 -49 8 0 136 57 146 65 2 2 -6 21 -17 44 -12 22 -21 57 -21 77 0 31 8 45 53 91 61 60 79 64 156 33 l50 -19 40 61 c23 33 41 70 41 82 0 21 -192 246 -210 246 -4 0 -25 -30 -46 -67 -131 -228 -396 -335 -621 -252 -127 48 -246 163 -312 303 -41 85 -53 145 -54 256 0 176 58 324 172 440 112 114 225 156 397 147 71 -3 115 -11 147 -25 75 -33 160 -97 224 -167 38 -41 66 -63 74 -59 16 7 222 229 227 244 2 6 -13 39 -33 75 -41 74 -56 80 -120 40 -55 -34 -84 -32 -133 11 -65 55 -77 86 -61 151 15 64 11 70 -72 107 l-57 25 -54 -60 c-60 -65 -70 -68 -153 -44 -53 16 -53 16 -78 83 l-25 67 -58 2 c-33 1 -70 -2 -84 -6z"/>
<path d="M4913 12302 c-312 -2 -403 -5 -404 -15 -7 -55 5 -3414 11 -3421 5 -4 123 -11 264 -14 197 -4 259 -2 271 8 13 11 15 88 15 611 l0 599 23 5 c12 3 40 6 62 8 l39 2 67 -155 c109 -253 178 -416 244 -575 210 -505 201 -485 234 -502 18 -8 106 -11 320 -10 l296 2 -1 35 c-2 33 -52 148 -397 905 -124 273 -167 377 -161 387 3 4 37 24 77 45 105 55 239 191 296 301 187 362 201 909 32 1284 -105 234 -282 387 -537 463 -116 35 -232 41 -751 37z m614 -703 c112 -42 175 -139 201 -313 20 -136 7 -242 -43 -343 -71 -143 -140 -172 -425 -175 l-185 -3 -3 428 -2 427 200 0 c179 0 205 -2 257 -21z"/>
<path d="M6720 12302 c-178 -2 -207 -4 -217 -19 -10 -13 -13 -372 -13 -1714 0 -1530 2 -1699 16 -1713 14 -14 101 -16 807 -16 436 0 798 4 805 9 11 7 13 68 10 322 -1 173 -7 320 -11 327 -6 9 -119 12 -507 12 -301 0 -509 4 -524 10 l-26 10 2 362 3 363 420 2 c231 1 431 2 445 3 l25 0 -3 327 c-2 225 -6 329 -14 334 -6 4 -199 5 -430 2 -317 -4 -422 -2 -433 7 -12 10 -14 66 -13 344 1 199 5 336 11 344 8 10 118 12 514 12 277 0 508 2 514 5 6 4 9 123 9 319 -1 263 -3 317 -16 335 l-15 21 -577 -2 c-317 -2 -669 -4 -782 -6z"/>
<path d="M8333 12302 c-14 -2 -25 -13 -29 -28 -10 -38 3 -3415 13 -3425 14 -14 542 -13 559 2 13 11 15 135 12 1000 -2 543 0 982 3 976 4 -7 30 -73 59 -147 29 -74 120 -292 203 -485 82 -192 183 -429 223 -525 242 -583 331 -792 349 -815 l20 -25 248 -2 c148 -1 251 2 257 8 6 6 11 149 12 354 l3 345 -42 105 c-78 193 -130 395 -158 613 -17 137 -20 414 -4 555 22 203 93 495 164 673 l35 86 0 356 c0 299 -2 356 -15 367 -18 15 -517 15 -547 -1 -10 -6 -23 -21 -28 -35 -6 -15 -10 -367 -10 -892 0 -505 -4 -862 -9 -856 -5 5 -34 70 -66 144 -126 298 -339 797 -430 1010 -54 124 -126 295 -162 380 -35 85 -78 178 -95 207 -30 49 -34 51 -82 57 -52 7 -443 5 -483 -2z"/>
<path d="M15990 12295 c-10 -12 -9 -21 3 -47 8 -18 34 -76 57 -128 57 -126 167 -362 253 -540 38 -80 91 -192 117 -250 26 -58 98 -211 160 -340 61 -129 168 -356 237 -504 l125 -270 5 -705 c3 -407 9 -713 14 -723 9 -17 35 -18 328 -18 256 0 321 3 330 14 8 9 10 197 8 681 -2 368 0 692 4 722 5 33 35 112 80 211 39 86 109 238 155 337 45 99 91 198 102 220 11 22 62 130 112 240 50 110 120 259 155 330 79 164 129 270 195 415 29 63 76 165 105 225 48 100 51 112 37 128 -14 16 -43 17 -341 17 -239 0 -332 -4 -349 -13 -17 -9 -51 -75 -128 -252 -58 -132 -133 -303 -169 -380 -35 -77 -86 -192 -113 -255 -70 -160 -155 -349 -174 -385 l-16 -30 -40 85 c-53 112 -174 378 -282 620 -101 225 -188 411 -245 525 l-40 80 -336 3 c-290 2 -338 0 -349 -13z"/>
<path d="M1422 12288 c-7 -7 -12 -20 -12 -29 0 -10 43 -231 95 -491 52 -260 152 -756 221 -1103 69 -346 141 -704 160 -795 19 -91 70 -344 113 -562 44 -219 85 -406 91 -418 8 -14 21 -20 48 -21 179 -5 333 -6 364 -2 33 5 39 10 48 42 12 41 51 247 110 571 23 124 54 293 70 375 15 83 35 191 44 240 9 50 32 182 51 295 42 242 47 262 52 237 3 -9 8 -15 12 -13 4 3 8 -9 9 -25 2 -31 84 -499 101 -579 6 -25 26 -126 45 -225 133 -681 178 -901 189 -911 8 -8 88 -14 224 -18 204 -6 214 -5 233 14 11 11 20 29 20 39 0 30 65 359 150 761 17 80 44 215 60 300 50 263 202 1023 250 1245 15 72 42 204 60 295 17 91 40 204 51 252 10 48 30 142 43 210 14 68 32 158 41 201 9 43 14 89 11 102 l-6 25 -279 0 c-221 0 -281 -3 -290 -13 -6 -8 -22 -79 -35 -158 -14 -79 -32 -180 -40 -224 -63 -330 -101 -545 -126 -695 -16 -96 -40 -238 -55 -315 -14 -77 -37 -202 -50 -278 -14 -76 -29 -152 -33 -170 -9 -31 -9 -31 -15 -7 -4 14 -15 70 -26 125 -11 55 -40 199 -65 320 -25 121 -66 333 -91 470 -70 383 -83 456 -120 645 -18 96 -36 192 -39 214 -3 21 -12 49 -21 62 -15 24 -16 24 -208 24 -139 0 -198 -4 -210 -12 -13 -10 -28 -79 -62 -283 -25 -148 -52 -304 -60 -345 -8 -41 -24 -133 -35 -205 -29 -180 -65 -391 -112 -650 -22 -121 -44 -250 -50 -287 -6 -38 -14 -68 -18 -68 -4 0 -14 35 -23 78 -9 42 -25 120 -36 172 -34 164 -59 296 -116 605 -30 165 -66 354 -79 420 -21 99 -96 523 -96 539 0 2 -7 12 -16 20 -13 14 -52 16 -273 16 -186 0 -260 -3 -269 -12z"/>
<path d="M14750 12280 c-13 -25 -7 -3477 7 -3491 5 -5 395 -9 878 -9 824 -1 870 0 883 17 12 15 13 73 9 323 -3 168 -9 313 -13 323 -6 15 -29 17 -263 18 -517 1 -853 7 -862 16 -4 4 -10 632 -13 1394 -3 762 -8 1392 -11 1401 -4 9 -16 19 -28 22 -12 3 -147 6 -299 6 -267 0 -278 -1 -288 -20z"/>
</g>
</svg>